<svg xmlns="http://www.w3.org/2000/svg" version="1.1" width="600px" height="600px" viewBox="0 0 200 200" style="overflow:hidden!important;"><g id="svga-group-wrapper"><g id="svga-group-backs-single"><path id="SvgjsPath5137" d="M0 0h200v200H0V0z" fill="#ecf0f1" stroke-width="none" opacity="1" stroke="none"></path></g><g id="svga-group-humanwrap-move" transform="matrix(1,0,0,1,0,0)"><g id="svga-group-humanwrap"><g id="svga-group-hair-back-move" transform="matrix(1,0,0,1,0,0)"><g id="svga-group-hair-back"><path id="SvgjsPath8400" d="M120 28.1s3.7-7.1-5.6-12.8-20.7-6.6-25.1-3.7c0 0-22.9-7.6-40 21.2 0 0-7.1 3.2-11 17.3s8 38.3 8 38.3 11.2 25.9 4.2 38.8-12.9 19.5-12.5 28.6c.5 9 4.6 14.9 13.9 21.7s10.5 19.8 10.5 19.8 11.2-3.2 12.7-8.8c1.5-5.6-1-18.3.5-24.2 1.5-5.9 4.6-12.2 6.8-19.8C84.7 137.1 120 28.1 120 28.1z" fill="#2a232b" stroke-width="none" opacity="1" stroke="none"></path><path id="SvgjsPath8401" d="M120.4 22.5c-.5-1.6-1.4-3-2.5-4.2-2.2-2.5-4.8-4.5-7.7-5.9-1.5-.7-3-1.3-4.6-1.7-1.6-.4-3.2-.7-4.8-.8-3.2-.3-6.5.2-9.5 1.3 3.2-.5 6.3-.6 9.4-.1 3.1.4 6.1 1.3 8.8 2.7 1.4.7 2.7 1.4 4 2.4 1.3.9 2.4 1.9 3.6 3 1.1 1.1 2 2.3 2.7 3.7.7 1.4.9 3 .5 4.5.7-1.6.6-3.4.1-4.9zM89.9 11.6c-4.1-1.3-8.5-1.4-12.7-.6-4.2.8-8.2 2.4-11.9 4.6-1.8 1.1-3.6 2.3-5.3 3.7-1.7 1.3-3.2 2.8-4.7 4.4-2.7 3-5 6.5-6.8 10.2-2.4 1.5-4.4 3.5-6 5.8-1.8 2.6-3.2 5.6-4.1 8.7-1.7 6.2-1.7 12.8-.4 19.1 2.6 12.7 9.2 23.9 12.2 36.1 1.5 6.1 2.2 12.5 1.2 18.6-.5 3.1-1.6 6-3.1 8.8-1.5 2.8-3.3 5.3-5 8-1.7 2.7-3.3 5.5-4.3 8.6-1 3.1-1.4 6.5-.5 9.6.9 3.2 3 5.8 5.4 7.9 2.4 2.1 5.1 3.8 7.8 5.4-2.7-1.8-5.3-3.6-7.6-5.7-2.3-2.2-4.2-4.8-5-7.8-.8-3-.4-6.2.7-9.1 1-3 2.6-5.7 4.4-8.3s3.7-5.2 5.2-8.1c1.6-2.8 2.7-5.9 3.3-9.1 1.2-6.4.5-13-1-19.2-1.6-6.2-4-12.2-6.4-18.1-2.4-5.9-4.7-11.8-6.1-17.9-1.4-6.1-1.6-12.6 0-18.7.8-3.1 2-6 3.7-8.6 1.5-2.3 3.4-4.3 5.7-6-1.9 4-3.2 8.2-3.8 12.6-.5 4.2-.4 8.5.3 12.7.8 4.2 2.1 8.2 4 12-.8-1.9-1.5-3.9-2.1-5.9-.5-2-1-4.1-1.2-6.2-.5-4.1-.5-8.3.2-12.4s1.8-8.1 3.7-11.8c.9-1.9 1.9-3.7 3.1-5.4 1.2-1.7 2.5-3.3 3.8-4.9 5.5-6.1 12.8-10.8 20.9-12.6 4-.9 8.3-.9 12.3.2s7.7 3.3 10.4 6.5c-2.5-3.3-6.3-5.8-10.3-7.1zM69 26.8c-3.3 1.4-6.3 3.5-8.9 6-2.5 2.5-4.7 5.5-6.3 8.8-1.6 3.3-2.7 6.7-3.3 10.3-1.3 7.1-.8 14.4.3 21.5 1.2 7.1 3.1 14 4.8 20.9 1.7 6.9 3.3 13.8 3.8 20.9.4 7-.2 14.2-2.8 20.8-.6 1.6-1.4 3.2-2.2 4.8-.5.7-.9 1.5-1.4 2.2-.5.7-1 1.4-1.6 2.1-2.2 2.8-4.6 5.6-6 8.9-.7 1.7-1.2 3.5-1.2 5.3-.1 1.8.4 3.7 1.3 5.2.9 1.6 2.2 2.9 3.6 4s2.9 2 4.5 2.9c-1.5-1-3-2-4.3-3.1-1.3-1.1-2.6-2.4-3.4-4-.8-1.5-1.2-3.3-1.1-5 .1-1.7.6-3.4 1.3-5 1.5-3.2 3.9-5.9 6.1-8.6.6-.7 1.1-1.4 1.6-2.1s1-1.5 1.5-2.3c.9-1.6 1.8-3.2 2.4-4.9 1.4-3.4 2.2-6.9 2.7-10.5.5-3.6.5-7.2.3-10.8-.4-7.2-2-14.3-3.7-21.2-1.8-6.9-3.7-13.8-4.9-20.8-1.2-7-1.6-14.1-.5-21.1.5-3.5 1.5-6.9 3-10.1 1.5-3.2 3.5-6.1 6-8.7 2.4-2.6 5.4-4.7 8.5-6.2 3.2-1.5 6.8-2.2 10.3-2.1-3.4-.1-7.1.5-10.4 1.9z" fill="#0c080c" stroke-width="none" opacity="1" stroke="none"></path><path id="SvgjsPath8402" d="m76.2 26.7 4.5-3.6s4-4 13.6-4.9c5.9-.5 15 .1 21.4 4.1 2.6 1.6 4.5 4.8 4.5 4.8s-8.5-4.9-21-4.6c-12.4.4-17.8 1.6-23 4.2z" fill="#000000" stroke-width="none" opacity="1"></path></g></g><g id="svga-group-humanbody-back"><path id="SvgjsPath5205" d="M77.8 105.9s4.8 37.7 10 55.8c0 0-6.4 8.8-14.5 11.9-28.7 11.2-35 11.2-39.6 15.2-2.4 2.1.2 11.1 1.8 17.2 1.3 5 1.7 13.2 1.7 13.2h132.2s1.6-33-.6-39.8-7.1-2.9-21.9-4.5c-14.8-1.6-28.7-10.3-31-13.2l.3-60-38.4 4.2z" fill="#f3d4cf" stroke-width="none" opacity="1" stroke="none"></path></g><g id="svga-group-chinshadow-single"><path id="SvgjsPath8443" d="M85.6 152.8c6.6 3.5 10.7 3.5 10.7 3.5s8 0 19.6-9.5l.2-45.2-38.4 4.2c.1.1 3.6 27.7 7.9 47z" fill="#d4958a" stroke-width="none" opacity="1"></path></g><g id="svga-group-humanbody-front"><path id="SvgjsPath5206" d="M72.1 183.1s14.6-.2 20.4 2.6c5.8 2.9 12.7 2.4 16.1-1s21.6-7 21.6-7-19.7 1.9-25 4.6c-5.3 2.7-22.3-2.8-33.1.8z" fill="#d4958a" stroke-width="none" opacity="1" stroke="none"></path><path id="SvgjsPath5207" d="M74.2 173.2c6.7-1.3 14.7-6.4 14.7-6.4l6.2 5.5c-4.3-7.9-12.7-41.1-12.7-41.1l-.7.7c1.7 10.5 3.9 21.9 6.1 29.7 0 0-6 8.2-13.6 11.6z" fill="#d4958a" stroke-width="none" opacity="1" stroke="none"></path><path id="SvgjsPath5208" d="M170.7 188.5c-.1-2.1-.2-4.1-.4-6.2-.1-1-.3-2.1-.6-3.2-.2-.5-.4-1-.6-1.6-.2-.5-.6-1-1-1.5s-.9-.9-1.5-1.1c-.6-.3-1.1-.4-1.7-.6-1.1-.2-2.2-.2-3.2-.2-2.1 0-4.1.1-6.1.1s-4-.1-6-.2-4-.4-6-.7c-1-.2-2-.4-2.9-.6l-1.5-.4c-.5-.1-1-.3-1.4-.4-3.8-1.1-7.6-2.6-11.2-4.4l-1.3-.7-1.3-.7c-.4-.2-.9-.5-1.3-.8s-.9-.5-1.3-.8-.8-.5-1.3-.8l-1.2-.9-.6-.5-.3-.2-.3-.2c-.2-.2-.4-.3-.5-.5l-.2-.3v-44.6l-.1-15v-.6l-.6.1c-6.4.8-12.9 1.5-19.3 2.3l-19.1 2.3v.5l.1.4.1.9.2 1.8c.1 1.2.3 2.3.4 3.5l.9 7c.6 4.7 1.3 9.4 2.1 14 .8 4.7 1.5 9.3 2.5 14 .9 4.5 1.8 9 3 13.5-1.1 1.4-2.3 2.7-3.6 4-1.3 1.3-2.8 2.6-4.3 3.8-1.5 1.1-3.1 2.2-4.8 3l-1.3.6c-.4.2-.9.3-1.3.5l-2.7 1c-7.2 2.7-14.5 5.3-21.8 7.7l-5.5 1.8c-1.8.6-3.7 1.3-5.5 2.2-.4.2-.9.5-1.3.7-.4.3-.9.5-1.3.9l-.6.5c-.2.2-.5.5-.6.8-.3.5-.4 1.1-.5 1.6-.2 1.1-.1 2.1 0 3.1s.3 2 .4 2.9c.4 1.9.8 3.8 1.3 5.7l.8 2.8c.3.9.5 1.8.7 2.8.4 1.9.7 3.8.9 5.7s.4 3.8.5 5.7v.8h133.4v-.8c.2-4.1.4-8.2.5-12.3s.2-8.2.2-12.3c0-1.8-.1-3.8-.1-5.9zm-67.4 30.3H70.2l-16.5-.1-16-.1c-.1-1.8-.2-3.5-.4-5.3-.2-1.9-.4-3.9-.8-5.8-.2-1-.4-1.9-.7-2.9l-.7-2.8c-.5-1.9-.9-3.7-1.2-5.6-.2-.9-.3-1.9-.4-2.8-.1-.9-.1-1.9 0-2.7.1-.4.2-.8.4-1.1.1-.2.2-.3.3-.4l.5-.4c.3-.3.7-.5 1.1-.8.4-.2.8-.5 1.2-.7 1.7-.8 3.5-1.4 5.3-2l5.5-1.8c7.3-2.4 14.6-5 21.8-7.8l2.7-1c.5-.2.9-.3 1.4-.5l1.4-.6c1.8-.9 3.4-2 5-3.2s3-2.5 4.4-3.9 2.7-2.9 3.8-4.5l.2-.3-.1-.3c-1.3-4.5-2.3-9.1-3.3-13.7s-1.9-9.3-2.7-13.9c-.8-4.6-1.6-9.3-2.4-14l-2.2-13.9 19.3-1.8c6.2-.6 12.3-1.2 18.5-1.8l-.2 14.4-.2 15-.3 30v.4l.2.2.6.7.6.6.3.3.3.2.6.5c.4.3.9.6 1.3.9.4.3.9.6 1.3.9.4.3.9.5 1.3.8s.9.5 1.3.8l1.4.8 1.4.7c.5.2.9.5 1.4.7l1.4.7c1 .4 1.9.8 2.9 1.2s1.9.8 2.9 1.1l1.5.5c.5.2 1 .3 1.5.4.5.1 1 .3 1.5.4l1.5.4c1 .3 2 .4 3 .6 2 .4 4.1.6 6.2.8 2.1.2 4.1.2 6.2.2 2.1 0 4.1-.1 6.1-.1s4 .1 5 1.3c.5.6.9 1.4 1.2 2.3.3.9.4 1.9.6 2.8.3 2 .4 4 .5 6s.1 4.1.2 6.1c.1 7.9-.1 15.8-.4 23.7-10.8.1-21.5.1-32.3.2h-33.1z" fill="#c5796d" stroke-width="none" opacity="1" stroke="none"></path><path id="SvgjsPath5209" d="M150.7 219.2 147 198l-.4 21.2z" fill="#d4958a" stroke-width="none" opacity="1" stroke="none"></path><path id="SvgjsPath5210" d="M47.3 203.5s2.2 11.5 2.9 15.7h3.5l-6.4-15.7z" fill="#d4958a" stroke-width="none" opacity="1" stroke="none"></path></g><g id="svga-group-clothes-single"><path id="SvgjsPath8447" d="M31.7 194.7c0 2.7-1.2 11.2-5.1 15.7 0 0 5.4-2 7.2.5 1.8 2.5 2.1 4.8 5.9 2.4 3.8-2.3 4.9-.3 5.8.4.9.7 3.3 1.4 5 .1s3.2-.5 4.3.9 3.9 2.1 7.7.5 6 .5 9.8 1c3.9.5 7.8.4 8.6-.1s2.8-2 4.3-1.9 2.8 1.9 4 2.5 3.1-.8 3.9-1.3 2.2-.1 3.6.5 8.9-.2 8.9-.2.3 1.6 1.8 1.6 2.4-2 2.4-2 .3.8 2.9.3 6.8-2.7 8-2.7 2.6-.1 3.3.9.4 2 1.9 2.3 2.5.5 4.9-.7 4-2.5 6.4-.8c0 0 1.2 3.1 4.7 2.2s2.5-2.4 4.4-2.4 4.7 1.4 6.1 1.1 2.5-1.5 2.9-2.4c.4-.9 1.1-3.1 3.5-3.3 0 0 2.5 1.1 4.2-.2s2.6-2.6 4.5-3.7 4.9.3 6 0 2.6-1.4 2.8-2.9.7-2.6 1-3.4c.3-.9 2-1.4 2-1.4s-5.6-8.4-6.4-9.8-2.3-4.3-2.3-4.3-5.2 6.4-26.4 9.3c-13.2 1.8-33.6 3.8-47.6 4.3s-43.4 1.4-52.5-.1c-8.8-1.5-12.4-2.9-12.4-2.9z" fill="#847b6e" stroke-width="none" opacity="1"></path><path id="SvgjsPath8448" d="M137.2 193.6c-11.7 1.3-23.5 2.4-35.2 3.1-11.8.7-23.5 1.1-35.3 1.3-5.9.1-11.8.1-17.7-.3-5.9-.3-11.7-1.3-17.3-3.1 5.5 2.2 11.4 3.4 17.2 4 5.9.6 11.8.8 17.7.9 11.8.2 23.7-.1 35.5-.8 11.8-.7 23.6-1.9 35.3-3.5 5.8-.8 11.7-1.6 17.5-3.1 5.7-1.5 11.4-3.9 15.7-8-4.6 3.7-10.2 5.9-15.9 7.1-5.7 1.2-11.6 1.7-17.5 2.4zm-107.9 9.3c-.5 1.3-1 2.6-1.5 4s-1.1 2.6-1.7 4.1c1.2-.9 2.2-2.1 3-3.3.8-1.2 1.5-2.6 2-4s.8-2.9.9-4.4c.1-1.5 0-3-.5-4.5-.4 1.5-.7 2.9-1.1 4.2-.2 1.2-.6 2.5-1.1 3.9zm.2 7.7c1.1.1 2.1.3 3 .8.4.2.8.6 1.1.9.3.4.5.7.7 1.3.3.5.6 1.2 1.4 1.7s1.8.5 2.5.2c.7-.2 1.3-.6 1.8-1s.9-.7 1.3-1c.4-.3.7-.4 1.1-.4.4 0 .9.1 1.3.3.9.4 1.9 1.1 3.2 1.5.6.2 1.3.2 1.9 0 .6-.2 1.1-.6 1.3-1.2-.8.9-2 .8-2.9.3-.9-.5-1.7-1.3-2.8-1.9-.5-.3-1.2-.6-2-.7-.8-.1-1.6.2-2.2.5-.6.3-1.1.7-1.5 1.1-.4.3-.8.5-1.2.6-.4.1-.7.1-.8 0-.2-.1-.5-.4-.7-.9-.3-.5-.7-1.1-1.2-1.6s-1.1-.9-1.7-1.1c-.6-.2-1.2-.4-1.9-.4s-1.2 0-1.8.1c-1.2.2-2.4.6-3.3 1.3 1.2-.4 2.3-.6 3.4-.4zM52 209c.1-.9.1-1.7 0-2.6-.1-.9-.2-1.8-.6-2.6-.5.8-.8 1.7-1 2.5-.2.9-.4 1.7-.4 2.6s-.1 1.7 0 2.6c.1.8.2 1.6.5 2.4 0 .1-.1.1-.1.2 0-.1.1-.1.1-.1v.1c.1-.1.2-.3.2-.4.4-.3.9-.3 1.3-.2.6.1 1.2.4 1.6.8.5.4.9.9 1.4 1.4.5.5 1.1 1 1.9 1.3.8.3 1.6.3 2.3.2.8-.1 1.5-.3 2.1-.5.7-.2 1.3-.4 1.9-.6.6-.1 1.2-.2 1.8-.2 2.4 0 5 1 7.9 1.3 2.8.3 5.7.1 8.3-.6l.6-.2-.1-.6c-.5-2.4-1.1-4.7-1.8-7 .1 2.2.3 4.4.5 6.6-1.1.1-2.2.2-3.4.2-1.3 0-2.6-.1-3.9-.3-2.6-.3-5.1-1.4-8.2-1.3-3.2.1-5.5 2.3-7.7 1.8-1.1-.2-2-1.3-3.2-2.1-.6-.4-1.4-.6-2.1-.6-.4 0-.8.1-1.2.4.3-.6.5-1.2.6-1.8.4-1 .6-1.8.7-2.7zm123.5-18.2c-.7-1.1-1.5-2.3-2.3-3.4s-1.6-2.2-2.5-3.3c.2 1.4.6 2.8 1.2 4.1s1.2 2.6 2 3.7c.8 1.2 1.6 2.3 2.5 3.4.9 1.1 1.9 2.1 3 2.9-.5-1.4-1.1-2.6-1.8-3.8-.7-1.3-1.4-2.4-2.1-3.6zm3 7.5c-.3.1-.6.3-.8.4-.5.4-.8.9-1.1 1.4-.6 1-.9 2.2-1.4 3.1-.5.9-1 1.5-1.8 1.5-.7.1-1.8-.3-3-.5-.6-.1-1.4-.1-2.1.1-.7.2-1.3.5-1.8.9-1 .7-1.8 1.6-2.5 2.5-.7.8-1.4 1.6-2.3 2-.8.4-1.8.6-2.8.3-.2-1.2-.5-2.3-.9-3.4-.3-1.1-.7-2.2-1.1-3.2s-.8-2.1-1.2-3.2c-.4-1.1-.9-2.1-1.4-3.2-.2 1.2-.2 2.4-.1 3.6.1 1.2.4 2.4.8 3.5s.9 2.2 1.5 3.2 1.3 1.9 2.2 2.7c-.1 0-.1 0-.2-.1.8.9 2.2 1 3.4.7 1.2-.3 2.2-1.1 3.1-1.9 1.7-1.5 3.2-2.9 5-2.6.5.1 1 .2 1.6.3.6.1 1.2.2 2 .1.7-.1 1.5-.5 1.9-1.1.5-.5.8-1.2.9-1.7.4-1.2.5-2.3.8-3.2.3-1 .8-2.1 1.9-2.3 0-.1-.3 0-.6.1zm-21.7 12.2c-.6.3-1.1.8-1.5 1.4-.7 1.1-1.3 2.3-2.1 2.6-.8.4-1.8.1-3-.4-.6-.2-1.2-.4-1.9-.6-.7-.1-1.6-.2-2.3 0-1.5.4-2.5 1.3-3.5 1.9-1 .6-1.9.8-2.8.4-.9-.4-1.8-1.3-2.2-2.3-.5-1.1-.8-2.3-1.1-3.6-.1 1.3-.1 2.6.2 3.9v.1c-.2-.1-.4-.2-.6-.2-.7-.2-1.4-.2-2 0-1.4.3-2.5 1.1-3.6 1.6-.6.3-1.1.5-1.6.6-.6.1-1.1.1-1.6 0s-.8-.4-1.1-.8c-.3-.4-.5-1.1-1-1.7-.5-.6-1.3-1.1-2-1.3-.8-.2-1.5-.3-2.3-.2-1.5.1-2.8.8-3.9 1.4-1.2.6-2.2 1.2-3.3 1.4-1.1.2-2.2.1-2.9-.4l-.9-.7-.6.9c-.4.6-.8 1.2-1.3 1.6-.5.3-.8.3-1.1-.1-.3-.4-.6-1.2-.9-2l-.8-2.4c-1.2-3.1-2.4-6.2-3.7-9.3.7 3.3 1.6 6.5 2.4 9.7l.7 2.4.3 1.1c-1.8-.2-3.6-.3-5.3-.4-1.1-.1-2.2 0-2.8-.3-.3-.1-.8-.4-1.5-.7-.3-.1-.8-.2-1.2-.1-.4.1-.8.2-1.1.3-.6.3-1.1.6-1.5.9-.4.3-.8.5-1 .5-.2 0-.3 0-.6-.3s-.8-.9-1.3-1.2c-1.1-.7-2.4-.8-3.6-.5-1.2.3-2.2 1-2.7 2 1.7-1.4 4-1.3 5.3-.2.3.3.5.6.9 1.1.2.2.4.5.8.8.4.2.8.3 1.3.3.9-.1 1.4-.5 1.9-.8.5-.3.9-.6 1.2-.8.4-.2.6-.2.8-.1.3.1.8.4 1.4.6.7.2 1.3.2 1.9.2.6 0 1.1-.1 1.6-.1 1.8-.2 3.6-.4 5.4-.8.1.4.3.8.6 1.2.3.5.9.9 1.6 1 .7.1 1.3-.1 1.8-.4.6-.4 1.1-.8 1.4-1.3.4.2.9.4 1.3.4.8.1 1.5.1 2.2-.1 1.5-.3 2.7-1 3.8-1.6 1.1-.6 2.2-1.1 3.2-1.3 1.1-.1 2.2.1 2.8.7.3.3.5.9 1 1.5.5.7 1.3 1.1 2.1 1.2 1.5.3 3-.4 4.1-1.1 1.1-.7 2.1-1.5 3.2-1.9.8-.3 1.7-.4 2.6-.1.4 1.2 1.1 2.3 2.3 3 .6.4 1.5.6 2.3.5.8-.1 1.5-.3 2.1-.6 1.2-.6 2.2-1.4 3.2-1.6.3-.1.7-.1 1.1-.1l.4 3.2c-7.9.1-15.8.2-23.7.2-8.1 0-16.2-.3-24.3-.4-8.1-.2-16.2-.1-24.3-.1-8 .1-16 .2-24 .4l-1.4-5.1c-.1.1-.2.1-.3.2l1.1 5.4.1.3h.3c8.1.2 16.2.4 24.3.5 8.1.1 16.2.1 24.3-.1 8.1-.1 16.2-.4 24.3-.4s16.2 0 24.3.2h.6l-.1-.6-.3-3.4c.3.1.5.2.8.2.6.2 1.3.4 2 .5.7.1 1.6 0 2.3-.5.7-.4 1.2-1.1 1.4-1.7.3-.6.5-1.2.7-1.8.2-.5.6-1 1-1.4.4-.4 1-.7 1.6-.5-.3-.3-1.1-.2-1.7.1z" fill="#655640" stroke-width="none" opacity="1"></path><path id="SvgjsPath8449" d="M176.4 198.5c-2.7-3.3-4.9-6.3-6.5-10.3-.1-.1-.3-.1-.2.1.9 3.9 3 8.2 6.3 10.7.2.2.6-.2.4-.5zm-1.5.3c-.9.4-.9.8-1.4 1.5-1.2 1.7-2.9.7-4.6 1-2.5.4-5 3.1-6.4 5-.2.3.2.6.5.5 1.2-.7 2.2-1.6 3.2-2.5 1-.9 2.1-1.8 3.5-1.9.4 0 1.6.3 2.1.3 2.5-.2 1.6-2.2 3.3-3.4.3-.1.1-.7-.2-.5zm-20.1 9.9c-1.1-3.5-2.3-6.8-3.1-10.3-.1-.3-.7-.3-.6.1.4 3.6 1.4 7.4 3.3 10.4 0 .3.5.1.4-.2zm-.2.8c-.9.3-.4.6-1.2 1-3.6 1.8-3.1 0-5.7 0-.9 0-1.6.4-2.4.9-.4.3-1.6 1.3-1.8 1.4-1.7.6-3.4-.4-4.5-1.5-.3-.3-.7.1-.5.4 1.7 3.7 4.2 3.3 7.1 1.3 1.9-1.3 2.8-.7 4.9-.1.6.2 1.2.4 1.9.3 2.1-.4 1.3-1.9 2.6-3 .2-.3-.1-.8-.4-.7zm-21.7-6.6c-.3 1.8.5 3.9.2 5.5-1.4 7-4.9 3.6-7.2 2.4-.7-.4-1.4-.7-2.2-.9-4.9-1.4-8.1 2.7-12.8 1.8-.4-.1-.6.5-.2.6 3.8 1.4 4.2-.4 7.9-1.4 5-1.4 7.2 3.2 11.4 2.9 5.4-.3 3.1-7.8 3.1-10.9.1-.1-.2-.1-.2 0zm-29.3 1.5c.5 2.9 1.4 5.7 2.9 8.2.1.2.5.1.4-.2-1-2.7-2-5.4-2.9-8.2-.2-.2-.5-.1-.4.2zm-3.4 7.7c-2.6.7-4.3-1.5-6.7-1-.3.1-.7.3-1 .4-1.4.3-2 .2-3.5-.2-2.5-.7-4.6-.5-6.5 1.4-.2.2.1.6.3.4 1.4-1 3.1-1.7 4.9-1.2.9.2 1.6 1.1 2.4 1.3.6.2 1 .2 1.7.1 1.1-.3 1.3-.7 2.6-.9 1.3-.1 2 .4 3.2.6 1.2.2 1.8.3 2.8-.5.4-.1.2-.5-.2-.4zm-23-6.7c0 1.2.8 6.2-.2 6.6-.5.2-4.7-1.4-5.6-1.5-5.4-.5-10.5 3.4-15.4 1.2-.6-.3-1.1.5-.5.9 2.5 1.8 4 2 6.9 1 5.5-2 9.9-2.7 15.4 0 .3.2.9 0 .9-.5-.3-2.6-.4-5.3-.8-7.9-.2-.2-.7-.1-.7.2zm-29.3-.6c-.2 2-.5 3.9-.7 5.9-1.6-2-4.3-3-6.9-2.1-.6.2-1.3.9-1.9 1.1-2.4.5-1.5-.4-2.6-1-.7-.4-4.1-1.9-4.1-2.3 0-.3-.3-.5-.5-.2-.4.8-.6 1.1.1 1.9.4.4.9.4 1.3.6 1.2.6 2 1.5 3 2.2 1 .7 1.1 1.1 2.5.6.6-.2 1.6-1.2 1.7-1.3 2.8-1.6 5.7-.5 7.3 2 .2.4.8.2.8-.2.1-2.4.3-4.8.4-7.1.1-.4-.3-.4-.4-.1z" fill="#938f89" stroke-width="none" opacity="1"></path></g><g id="svga-group-head" transform="matrix(1,0,0,1,0,0)"><g id="svga-group-ears-left-move" transform="matrix(1,0,0,1,0,0)"><g id="svga-group-ears-left"><path id="SvgjsPath8332" d="M61.04 91.08s-5.83-5.5-11.22-8.06c0 0-2.8.42-6.02 3.31 0 0 2.24 4.78 4.24 7.15s4.83 10.33 5.06 12.61c.23 2.28-.7 6.43-.57 7.76.13 1.34 3.12 1.44 3.12 1.44s5.5-3.12 8.94-7.93c-.01-.01-1.05-8.96-3.55-16.28z" fill="#f3d4cf" stroke-width="none" opacity="1" stroke="none"></path><path id="SvgjsPath8333" d="M61.34 97.94c.04-.27-8.21-9.91-14.16-11.02 0 0 1.66 5.41 2.79 7.19 1.12 1.78 4.76 10.6 4.44 15.1 0 0 3.82-2.19 5.96-3.95-.01 0 .52-4.18.97-7.32z" fill="#e4b3ab" stroke-width="none" opacity="1" stroke="none"></path><path id="SvgjsPath8334" d="m43.59 86.1-.17.15.1.2c.63 1.26 1.3 2.48 2.02 3.69.72 1.2 1.5 2.38 2.41 3.45.85 1.07 1.48 2.33 2.06 3.59.56 1.27 1.07 2.57 1.53 3.88.44 1.32.85 2.65 1.15 4 .34 1.33.15 2.7 0 4.08-.16 1.38-.42 2.74-.52 4.18-.01.18-.01.37.01.57.04.24.13.47.27.65.29.35.66.54 1.01.68.72.27 1.42.38 2.16.43l.1.01.09-.05c1.76-1.03 3.4-2.22 4.93-3.56.77-.66 1.49-1.37 2.19-2.12.7-.74 1.33-1.54 1.94-2.36l.09-.12-.02-.14a95.27 95.27 0 0 0-1.51-8.23 92.39 92.39 0 0 0-1.04-4.05c-.39-1.33-.84-2.66-1.32-3.97-.83-.84-1.68-1.6-2.55-2.37-.87-.77-1.77-1.49-2.69-2.2-1.84-1.42-3.78-2.71-5.88-3.75l-.09-.04-.09.02c-.63.11-1.17.3-1.73.52-.55.22-1.09.48-1.6.78-.51.3-1.01.62-1.48.98-.48.33-.93.71-1.37 1.1zm.59.31c.38-.32.76-.63 1.16-.92.46-.34.94-.64 1.43-.92.5-.27 1-.53 1.52-.74.49-.2 1.01-.38 1.5-.48.99.48 1.96 1.02 2.91 1.6.97.62 1.94 1.24 2.87 1.9.94.67 1.85 1.37 2.77 2.07.91.7 1.81 1.45 2.68 2.18.39 1.33.75 2.66 1.06 4.02.32 1.35.62 2.7.87 4.07.51 2.67.94 5.37 1.25 8.06-.56.75-1.15 1.48-1.81 2.16-.68.72-1.39 1.41-2.14 2.05-1.47 1.26-3.04 2.45-4.69 3.45-.62-.04-1.27-.13-1.83-.34-.29-.11-.57-.26-.72-.45a.69.69 0 0 1-.14-.3c-.01-.14-.02-.31-.01-.47.06-1.35.28-2.75.41-4.14.11-1.38.24-2.85-.16-4.24-.35-1.36-.81-2.69-1.3-4-.48-1.31-1-2.61-1.59-3.88-.58-1.27-1.17-2.55-2.04-3.68-.86-1.08-1.57-2.28-2.24-3.49-.63-1.15-1.21-2.33-1.76-3.51z" fill="#e4b3ab" stroke-width="none" opacity="1" stroke="none"></path><path id="SvgjsPath8335" d="M52.51 91.07c.88.94 1.65 1.98 2.36 3.05.71 1.07 1.38 2.16 1.98 3.3.61 1.13 1.17 2.28 1.65 3.46l-.07.03c-.65-1.1-1.32-2.18-1.99-3.26-.69-1.07-1.36-2.14-2.1-3.17-.74-1.03-1.48-2.05-2.28-3.02-.67-.82-1.38-1.61-2.19-2.29l1.66 3.8a76.96 76.96 0 0 1 1.81 4.41c.56 1.49 1.02 3.02 1.38 4.59.25 1.1.46 2.22.51 3.37a7.534 7.534 0 0 0 .84-3c-.44-1.61-.88-3.21-1.27-4.84l.07-.02c.62 1.57 1.18 3.17 1.75 4.76l.01.04v.05c-.01.82-.15 1.65-.41 2.43-.12.39-.28.78-.46 1.15-.18.38-.38.72-.64 1.09l-.77 1.07.09-1.34c.1-1.51-.17-3.07-.47-4.6-.31-1.53-.74-3.05-1.21-4.56-.46-1.51-.95-3.01-1.51-4.5-.58-1.47-1.18-2.94-1.91-4.34l-.25-.48.47.3c1.12.69 2.07 1.58 2.95 2.52z" fill="#c5796d" stroke-width="none" opacity="1" stroke="none"></path></g></g><g id="svga-group-ears-right-move" transform="matrix(1,0,0,1,0,0)"><g id="svga-group-ears-right"><path id="SvgjsPath8336" d="M138.96 91.08s5.83-5.5 11.22-8.06c0 0 2.8.42 6.02 3.31 0 0-2.24 4.78-4.24 7.15s-4.83 10.33-5.06 12.61c-.23 2.28.7 6.43.57 7.76-.13 1.34-3.12 1.44-3.12 1.44s-5.5-3.12-8.94-7.93c.01-.01 1.05-8.96 3.55-16.28z" fill="#f3d4cf" stroke-width="none" opacity="1" stroke="none"></path><path id="SvgjsPath8337" d="M138.66 97.94c-.04-.27 8.21-9.91 14.16-11.02 0 0-1.66 5.41-2.79 7.19-1.12 1.78-4.76 10.6-4.44 15.1 0 0-3.82-2.19-5.96-3.95.01 0-.52-4.18-.97-7.32z" fill="#e4b3ab" stroke-width="none" opacity="1" stroke="none"></path><path id="SvgjsPath8338" d="M155.04 84.98c-.47-.35-.97-.67-1.48-.98-.51-.3-1.05-.56-1.6-.78-.56-.22-1.11-.41-1.73-.52l-.09-.02-.09.04c-2.1 1.04-4.05 2.33-5.88 3.75-.92.71-1.82 1.43-2.69 2.2-.87.77-1.72 1.54-2.55 2.37-.48 1.31-.93 2.64-1.32 3.97-.38 1.34-.73 2.69-1.04 4.05-.62 2.72-1.12 5.46-1.51 8.23l-.02.14.09.12c.61.82 1.24 1.62 1.94 2.36.7.74 1.42 1.45 2.19 2.12 1.53 1.34 3.16 2.53 4.93 3.56l.09.05.1-.01c.74-.05 1.45-.16 2.16-.43.35-.14.72-.33 1.01-.68.14-.18.24-.41.27-.65.02-.2.02-.39.01-.57-.09-1.44-.36-2.8-.52-4.18-.15-1.38-.34-2.75 0-4.08.3-1.35.71-2.68 1.15-4 .46-1.31.97-2.61 1.53-3.88.58-1.26 1.21-2.52 2.06-3.59.91-1.08 1.68-2.25 2.41-3.45.72-1.2 1.39-2.43 2.02-3.69l.1-.2-.17-.15c-.44-.37-.89-.75-1.37-1.1zm-.97 4.94c-.67 1.21-1.37 2.42-2.24 3.49-.87 1.13-1.47 2.41-2.04 3.68-.58 1.27-1.11 2.57-1.59 3.88-.49 1.31-.94 2.63-1.3 4-.4 1.39-.27 2.85-.16 4.24.13 1.39.35 2.79.41 4.14.01.17 0 .33-.01.47-.02.11-.06.21-.14.3-.15.19-.43.34-.72.45-.56.21-1.21.3-1.83.34-1.65-1-3.22-2.19-4.69-3.45-.75-.64-1.46-1.33-2.14-2.05-.65-.68-1.24-1.41-1.81-2.16.31-2.69.74-5.39 1.25-8.06.25-1.36.55-2.72.87-4.07.31-1.36.67-2.69 1.06-4.02.87-.73 1.77-1.48 2.68-2.18.91-.7 1.83-1.41 2.77-2.07.94-.67 1.91-1.29 2.87-1.9.95-.58 1.92-1.12 2.91-1.6.49.1 1.01.28 1.5.48.52.22 1.02.47 1.52.74.49.28.97.58 1.43.92.4.29.78.6 1.16.92-.56 1.18-1.14 2.36-1.76 3.51z" fill="#e4b3ab" stroke-width="none" opacity="1" stroke="none"></path><path id="SvgjsPath8339" d="M147.49 91.07c-.88.94-1.65 1.98-2.36 3.05-.71 1.07-1.38 2.16-1.98 3.3-.61 1.13-1.17 2.28-1.65 3.46l.07.03c.65-1.1 1.32-2.18 1.99-3.26.69-1.07 1.36-2.14 2.1-3.17.74-1.03 1.48-2.05 2.28-3.02.67-.82 1.38-1.61 2.19-2.29l-1.66 3.8a76.96 76.96 0 0 0-1.81 4.41c-.56 1.49-1.02 3.02-1.38 4.59-.25 1.1-.46 2.22-.51 3.37a7.534 7.534 0 0 1-.84-3c.44-1.61.88-3.21 1.27-4.84l-.07-.02c-.62 1.57-1.18 3.17-1.75 4.76l-.01.04v.05c.01.82.15 1.65.41 2.43.12.39.28.78.46 1.15.18.38.38.72.64 1.09l.77 1.07-.09-1.34c-.1-1.51.17-3.07.47-4.6.31-1.53.74-3.05 1.21-4.56.46-1.51.95-3.01 1.51-4.5.58-1.47 1.18-2.94 1.91-4.34l.25-.48-.47.3c-1.12.69-2.07 1.58-2.95 2.52z" fill="#c5796d" stroke-width="none" opacity="1" stroke="none"></path></g></g><g id="svga-group-faceshape-wrap"><g id="svga-group-faceshape-single"><path id="SvgjsPath8433" d="M135.9 49.8c-6.7-7.4-11.3-13.2-28.8-17.3-1.8-.4-12.3-.4-14.1 0-17.5 4.1-22.1 9.9-28.8 17.3-7.1 7.8-9.5 29-9.5 29 0 9.6 1.3 32.3 13.3 47.2 17.8 22.2 32.1 22.3 32.1 22.3s14.2 0 32.1-22.3c12-14.9 13.3-37.6 13.3-47.2-.1 0-2.5-21.2-9.6-29z" fill="#f3d4cf" stroke-width="none" opacity="1"></path><path id="SvgjsPath8434" d="M107.1 32.5c-1.8-.4-12.3-.4-14.1 0-17.5 4.1-22.1 9.9-28.8 17.3-7.1 7.8-9.5 29-9.5 29 0 9.6 1.3 32.3 13.3 47.2 17.8 22.2 32.1 22.3 32.1 22.3s14.2 0 32.1-22.3c12-14.9 13.3-37.6 13.3-47.2 0 0-2.4-21.2-9.5-29-6.9-7.4-11.5-13.2-28.9-17.3zM142 63.8c.7 2.5 1.1 5 1.6 7.5.4 2.5.7 5 1 7.5-.2 7.4-1.3 14.8-3 22-.9 3.6-1.9 7.1-3.3 10.5-.7 1.7-1.4 3.4-2.2 5s-1.7 3.2-2.7 4.7l-1.5 2.2c-.3.4-3.4 4.2-3.4 4.2l-3.7 4.1-6.1 5.7c-2.8 2.3-5.8 4.5-9 6.2l-1.2.6-1.2.6c-.8.4-1.6.7-2.5 1l-1.3.4c-.4.1-.8.2-1.3.3-.4.1-1.71.43-2.9.4 0 0-1.4-.2-1.9-.3-.4-.1-.9-.2-1.3-.3l-1.3-.4c-.8-.3-1.7-.6-2.5-1l-1.2-.5-1.2-.6c-3.2-1.6-6.3-3.7-9.1-6l-4.1-3.6-3.9-3.9-1-1-.9-1-1.8-2.1c-1.2-1.4-2.3-2.8-3.3-4.4-1-1.5-2-3.1-2.8-4.8-.8-1.6-1.6-3.3-2.3-5.1-.7-1.7-1.3-3.5-1.8-5.3s-1-3.6-1.4-5.4-.8-3.6-1-5.5c-.3-1.8-.5-3.7-.7-5.5-.4-3.7-.5-7.4-.5-11.1.3-2.3.8-4.6 1.2-6.9.5-2.3 1.1-4.6 1.7-6.8.7-2.2 1.4-4.5 2.3-6.6.4-1.1.9-2.1 1.4-3.1s2.59-4.47 6.3-8.1c1.6-1.7 3.3-3.3 5-4.7 3.5-2.8 7.7-4.9 12-6.5l1.6-.6c6.69-2.31 10.6-2.2 11.8-2.3 2.3-.1 4.71-.26 7-.1 3.16.22 6.8 1.4 6.8 1.4 2.3.6 4.5 1.3 6.7 2.3.3.1 1.6.7 1.6.7.5.3 2.6 1.3 3.1 1.7.5.3 5.3 3.7 6.9 5.4 1.7 1.7 3.3 3.4 4.9 5.2 1.7 1.9 2.9 4.2 3.9 6.6 1.1 2.4 1.9 4.8 2.5 7.3z" fill="#c5796d" stroke-width="none" opacity="1"></path></g></g><g id="svga-group-mouth-single-move" transform="matrix(1,0,0,1,0,0)"><g id="svga-group-mouth-single"><path id="SvgjsPath8242" d="M86.3 122.77s3.78 5.21 6.46 6.76c2.69 1.54 6.74 2.85 11.37 1.48s9.37-6.41 9.37-6.41-5.48-2.85-7.85-3.27c-2.37-.42-6 1.66-6 1.66s-2.47-1.96-3.95-2.2-9.4 1.98-9.4 1.98z" fill="#da7c87" stroke-width="none" opacity="1" stroke="none"></path><path id="SvgjsPath8243" d="M84.89 122.33c2.54.48 5.06 1.07 7.57 1.72 1.26.32 2.5.67 3.76 1.04.65.2 1.19.39 1.81.47.61.09 1.23.12 1.86.11 1.25.01 2.52-.11 3.77-.31.31-.05.62-.1.94-.16.32-.06.65-.12.97-.16.64-.1 1.29-.17 1.93-.24 1.29-.13 2.58-.21 3.87-.25 1.29.02 2.55-.09 3.83-.34-1.21.49-2.52.76-3.79.89-1.27.17-2.54.36-3.81.57l-1.89.34c-.31.06-.62.13-.93.2l-.96.21c-1.29.24-2.59.37-3.91.38-.66-.01-1.32-.04-1.99-.15-.66-.09-1.36-.32-1.94-.53l-3.69-1.21c-2.49-.82-4.95-1.65-7.4-2.58z" fill="#cb5f6c" stroke-width="none" opacity="1" stroke="none"></path></g></g><g id="svga-group-eyes-left-move" transform="matrix(1,0,0,1,0,0)"><g id="svga-group-eyes-left"><g id="svga-group-eyesback-left"><path id="SvgjsPath6918" d="M80.2 77.2c7.5 0 13.5 5.8 13.5 13s-6 13-13.5 13-13.5-5.8-13.5-13 6-13 13.5-13z" fill="#ffffff" stroke-width="none" opacity="1"></path></g><g id="svga-group-eyesiriswrapper-left" transform="matrix(1,0,0,1,0,0)"><g id="svga-group-eyesiriscontrol-left" transform="matrix(1,0,0,1,0,0)"><g id="svga-group-eyesiris-left"><path id="SvgjsPath8202" d="M80.2 84.6c3.1 0 5.6 2.5 5.6 5.6s-2.5 5.6-5.6 5.6-5.6-2.5-5.6-5.6 2.5-5.6 5.6-5.6z" fill="#4e60a3" stroke-width="none" opacity="1"></path><path id="SvgjsPath8203" d="M80.2 86.3c2.1 0 3.9 1.7 3.9 3.9s-1.7 3.9-3.9 3.9-3.9-1.7-3.9-3.9 1.8-3.9 3.9-3.9z" fill="#000000" stroke-width="none" opacity="1"></path><path id="SvgjsPath8204" d="m76.1 87.6 4.4 3.1-1.8-5.1c-.3-.4-2.5.8-2.6 2z" fill="#ffffff" stroke-width="none" opacity="1"></path></g></g></g><g id="svga-group-eyesfront-left"><path id="SvgjsPath6926" d="M80.2 76.7c-7.8 0-14.1 6.1-14.1 13.6s6.3 13.6 14.1 13.6 14.1-6.1 14.1-13.6S88 76.7 80.2 76.7zm4.3 20.5c-4-.4-16.3-9-13.3-11s8.2-1.2 10.6-.3c2.4.9 8.2 10.4 8.2 10.4.2.4-1.5 1.3-5.5.9z" fill="#f3d4cf" stroke-width="none" opacity="1" stroke="none"></path><path id="SvgjsPath6927" d="M90.1 96.3c-.5-.9-1.1-1.7-1.6-2.6-.2-.3-.4-.7-.4-.7-1.6-2.8-3.1-4.7-4.5-6.1l-.6-.6c-.1-.1-.2-.2-.3-.2-2.3-1.8-4.3-2.2-6.2-2.4-3.2-.3-8.7-.2-9.4.7s1.4 3.2 4.3 5.8c1 .8 3.1 2.2 5 3.3.7.5 1.4 1 2.2 1.4.9.5 1.8 1 2.7 1.4.9.4 1.9.8 2.9 1 1 .1 2.1.1 3.1 0 .5-.1 1-.1 1.5-.2.2-.1.5-.1.7-.2.1-.1.2-.1.3-.2.2-.1.3-.2.3-.4zm-.2.3c-.1.1-.2.1-.3.2-.2.1-.5.2-.7.2-.5.1-1 .2-1.5.2-1 0-2 0-3-.2s-1.9-.6-2.8-1.1c-.9-.4-1.8-.9-2.6-1.5-1.7-1.1-3.4-2.2-4.9-3.5-.8-.7-1.5-1.3-2.1-2.1-.1-.1-.1-.2-.2-.2-.2-.4-.3-.8-.4-1-.4-1.2.4-1.6 2.9-2.1s5.8-.1 7.5.8c1 .5 2.2 1.6 3.2 2.8.6.7 1.2 1.5 1.8 2.3 1.2 1.6 2.4 3.3 3.5 5-.2 0-.3.2-.4.2z" fill="#c36868" stroke-width="none" opacity="1" stroke="none"></path></g></g></g><g id="svga-group-eyes-right-move" transform="matrix(1,0,0,1,0,0)"><g id="svga-group-eyes-right"><g id="svga-group-eyesback-right"><path id="SvgjsPath6919" d="M119.8 77.2c7.5 0 13.5 5.8 13.5 13s-6 13-13.5 13-13.5-5.8-13.5-13 6-13 13.5-13z" fill="#ffffff" stroke-width="none" opacity="1"></path></g><g id="svga-group-eyesiriswrapper-right" transform="matrix(1,0,0,1,0,0)"><g id="svga-group-eyesiriscontrol-right" transform="matrix(1,0,0,1,0,0)"><g id="svga-group-eyesiris-right"><path id="SvgjsPath8205" d="M119.8 85.3c2.7 0 4.9 2.2 4.9 4.9s-2.2 4.9-4.9 4.9-4.9-2.2-4.9-4.9 2.2-4.9 4.9-4.9z" fill="#4e60a3" stroke-width="none" opacity="1"></path><path id="SvgjsPath8206" d="M119.8 86.8c1.9 0 3.4 1.5 3.4 3.4s-1.5 3.4-3.4 3.4-3.4-1.5-3.4-3.4 1.5-3.4 3.4-3.4z" fill="#000000" stroke-width="none" opacity="1"></path><path id="SvgjsPath8207" d="m116.2 87.9 3.8 2.7-1.6-4.5c-.1-.3-2.1.8-2.2 1.8z" fill="#ffffff" stroke-width="none" opacity="1"></path></g></g></g><g id="svga-group-eyesfront-right"><path id="SvgjsPath6928" d="M119.8 76.7c-7.8 0-14.1 6.1-14.1 13.6s6.3 13.6 14.1 13.6 14.1-6.1 14.1-13.6-6.3-13.6-14.1-13.6zm-3.9 20.2c-3.9.7-5.3.6-5.2.2 0 0 4.5-9.9 6.9-11.1s7.3-1.6 10.4.1c3.2 1.7-8.2 10.1-12.1 10.8z" fill="#f3d4cf" stroke-width="none" opacity="1" stroke="none"></path><path id="SvgjsPath6931" d="M130.5 84.2c-1.3-.3-8-2.1-12.9 1.5-.2.1-.3.3-.5.4-.2.2-.5.4-.7.6-3.9 3.8-5.8 10.5-5.8 10.5s0-.1.1-.2c0 .1 0 .2.1.2s.1.1.2.1.2.1.4.1h.7c.5 0 1-.1 1.5-.1s1-.1 1.5-.2 1-.1 1.5-.2c.9-.2 1.7-.6 2.5-1 1.3-.6 5.2-2.4 7.3-4.4 1.4-1.2 5.4-6.9 4.1-7.3zm-14.1 12.5c-.9.3-1.9.4-2.8.6-.5.1-1 .1-1.4.2h-.7c-.1 0-.2 0-.3-.1s-.2-.1-.2-.2c.4-.8.8-1.7 1.2-2.5 1.8-3.2 4.9-8.1 7.8-9 1.4-.4 9.1-.7 8.3 2-.3.8-1.2 2-2.5 3.1-1.3 1.2-2.7 2.2-4.2 3.2-.8.5-1.6 1-2.5 1.5-1 .4-1.8.8-2.7 1.2z" fill="#c36868" stroke-width="none" opacity="1" stroke="none"></path></g></g></g><g id="svga-group-facehighlight-single"></g><g id="svga-group-eyebrows-left-move" transform="matrix(1,0,0,1,0,0)"><g id="svga-group-eyebrows-left-rotate" transform="matrix(1,1.7453292519943295e-9,-1.7453292519943295e-9,1,1.2995914744351467e-7,-1.3809918186780124e-7)"><g id="svga-group-eyebrows-left"><path id="SvgjsPath5313" d="M64.55 76.13s7.64-5.4 8.86-5.62 19.49 3.09 19.95 4.12c.46 1.03-.07 3.12-1.4 3.76-1.33.64-12.63-3.98-17.91-5.17-2-.45-9.5 2.91-9.5 2.91z" fill="#2a232b" stroke-width="none" opacity="1"></path><path id="SvgjsPath5314" d="M64.52 76.15c.01.02.08.01.08 0l.03-.01.06-.02.12-.05.23-.09.47-.18.94-.35c.63-.23 1.26-.45 1.89-.67 1.26-.44 2.54-.84 3.83-1.12.32-.07.64-.12.96-.16.32-.03.63-.04.89.02.64.16 1.28.34 1.92.54 1.27.39 2.55.8 3.81 1.23 2.54.85 5.07 1.71 7.65 2.49.64.19 1.29.39 1.95.55.66.16 1.32.33 2.04.38.19 0 .37.02.62-.06l.09-.03.06-.04.12-.07c.08-.04.15-.1.23-.16.29-.23.51-.51.69-.8.34-.59.52-1.24.53-1.9 0-.33-.03-.67-.16-.99-.02-.05-.02-.07-.06-.13-.04-.07-.09-.09-.13-.13-.08-.06-.16-.1-.24-.14-.16-.08-.32-.13-.48-.19-.65-.22-1.3-.39-1.95-.55-1.31-.33-2.62-.61-3.94-.9-2.63-.58-5.25-1.18-7.9-1.68-1.33-.24-2.66-.47-4.01-.63-.34-.04-.68-.08-1.03-.09-.09 0-.18-.01-.28-.01-.05 0-.1 0-.17.01-.06.01-.1.03-.15.04-.21.06-.36.14-.52.22-.62.32-1.18.67-1.74 1.02-1.12.71-2.19 1.48-3.27 2.24-.54.38-1.07.77-1.59 1.17l-.79.59-.39.3-.19.15-.1.08c-.05.01-.1.08-.12.12zm.92-.49-.34.16.32-.2.83-.53 1.67-1.06c1.11-.71 2.23-1.41 3.36-2.09.56-.34 1.14-.67 1.71-.95l.21-.1c.07-.04.13-.04.19-.07l.09-.03h.08c.07 0 .15 0 .23.01.32.02.65.06.98.1 1.32.18 2.65.38 3.98.59 1.33.2 2.66.4 3.99.62 1.33.22 2.65.45 3.97.72 1.32.27 2.63.57 3.92.92.65.17 1.29.36 1.9.6.15.06.3.12.44.19.07.04.13.07.18.11.02.02.05.04.04.04.01 0 .02.06.03.08.09.27.11.57.09.87a3.7 3.7 0 0 1-.57 1.69c-.17.25-.37.47-.6.64-.06.04-.12.09-.18.12l-.09.05-.05.03h-.03c-.07.03-.24.02-.38.01-.62-.06-1.27-.24-1.91-.42-.64-.18-1.28-.38-1.91-.58-2.54-.82-5.05-1.74-7.61-2.57-1.28-.41-2.56-.82-3.86-1.17-.65-.18-1.31-.35-1.98-.49-.4-.09-.77-.05-1.12 0-.35.05-.69.12-1.02.2-1.33.34-2.58.82-3.83 1.32-.62.25-1.23.52-1.84.79l-.89.4z" fill="#1b141c" stroke-width="none" opacity="1"></path></g></g></g><g id="svga-group-eyebrows-right-move" transform="matrix(1,0,0,1,0,0)"><g id="svga-group-eyebrows-right-rotate" transform="matrix(1,1.7453292519943295e-9,-1.7453292519943295e-9,1,1.365545756470965e-7,-2.1299837271726574e-7)"><g id="svga-group-eyebrows-right"><path id="SvgjsPath5315" d="M135.56 80.74s-6.82-5.75-7.95-6.03c-1.13-.28-18.27 2.16-18.75 3.17-.48 1.01-.1 3.12 1.11 3.82s11.94-3.37 16.91-4.31c1.88-.36 8.68 3.35 8.68 3.35z" fill="#2a232b" stroke-width="none" opacity="1"></path><path id="SvgjsPath5316" d="m135.5 80.64-.09-.08-.17-.16-.35-.32-.7-.63c-.47-.42-.94-.84-1.42-1.24-.96-.81-1.92-1.62-2.93-2.39-.5-.38-1.01-.76-1.56-1.1-.14-.08-.28-.17-.47-.24-.05-.02-.09-.04-.14-.05-.06-.01-.12-.02-.16-.02-.09-.01-.18-.01-.26-.01-.33 0-.64.02-.96.05-1.26.1-2.51.26-3.76.44-2.49.37-4.96.85-7.43 1.3-1.24.23-2.47.45-3.7.72-.61.14-1.23.28-1.84.46-.15.05-.31.1-.46.17-.08.03-.15.07-.23.13-.04.04-.08.06-.13.12-.04.06-.04.09-.06.13-.13.32-.18.65-.2.98-.02.66.12 1.32.4 1.93.15.3.34.59.6.83.06.06.13.12.2.17l.11.08.06.04.08.04c.23.09.39.08.57.09.68-.02 1.29-.15 1.92-.28.62-.13 1.23-.3 1.84-.46 2.43-.66 4.83-1.4 7.24-2.13 1.2-.37 2.4-.72 3.6-1.05.6-.16 1.21-.32 1.81-.44.24-.06.54-.03.83.02.29.05.59.12.89.21 1.18.35 2.35.81 3.5 1.3.57.25 1.15.5 1.72.76l.85.4.43.2.21.1.11.05.05.03.03.01c-.01 0 .06.02.07 0a.339.339 0 0 0-.1-.16zm-1.56-.86c-.55-.3-1.11-.6-1.67-.88-1.13-.55-2.27-1.1-3.49-1.5-.31-.1-.62-.18-.94-.25-.32-.06-.67-.11-1.04-.05-.63.11-1.25.25-1.86.39-1.23.29-2.44.64-3.65.99-2.41.71-4.8 1.5-7.2 2.21-.6.17-1.2.34-1.81.49-.6.15-1.21.29-1.79.33-.13.01-.29 0-.36-.03l-.03-.01-.04-.03-.08-.06a.653.653 0 0 1-.16-.13c-.21-.18-.39-.41-.53-.67a3.91 3.91 0 0 1-.44-1.71c0-.3.03-.6.13-.86.01-.03.03-.08.03-.08l.04-.04c.05-.04.11-.07.18-.1.13-.07.28-.12.42-.17.58-.21 1.19-.36 1.8-.5 1.22-.29 2.45-.53 3.69-.73 1.24-.21 2.48-.37 3.73-.53 1.25-.16 2.49-.3 3.74-.43 1.25-.14 2.49-.28 3.73-.4.31-.03.62-.05.92-.06h.21c.03 0 .06.01.07.01.02.01.05.02.08.03.06.03.11.04.17.08l.19.11c.52.31 1.04.66 1.54 1.03 1.01.73 2.02 1.48 3.02 2.24l1.5 1.14.75.57.28.22-.31-.18-.82-.44z" fill="#1b141c" stroke-width="none" opacity="1"></path></g></g></g><g id="svga-group-nose-single-move" transform="matrix(1,0,0,1,0,0)"><g id="svga-group-nose-single"><path id="SvgjsPath6052" d="M94.83 88.79c.36 1.08.71 2.16 1.04 3.24.32 1.09.63 2.18.92 3.28.29 1.1.62 2.19.77 3.33.15 1.13.25 2.28.12 3.43l-.08.01c-.29-1.11-.55-2.2-.8-3.3-.25-1.1-.39-2.22-.61-3.33-.21-1.11-.45-2.22-.69-3.32-.23-1.11-.48-2.22-.74-3.32l.07-.02z" fill="#c5796d" stroke-width="none" opacity="1" stroke="none"></path><path id="SvgjsPath6053" d="M101.1 102.15c-1.12.07-2.22.27-3.28.6-1.06.32-2.09.74-3.03 1.29-.47.27-.9.59-1.21.97-.32.38-.44.82-.3 1.24.13.42.47.83.87 1.16.41.35.86.7 1.3 1.03.88.68 1.78 1.34 2.7 1.94.23.15.46.29.7.42.23.12.48.25.68.3.1.03.18.02.28.01l.17-.04.18-.06c.24-.09.48-.22.71-.35.95-.55 1.83-1.23 2.78-1.86.12-.08.24-.15.38-.22.06-.04.15-.06.24-.08.09-.01.18-.02.26.01.33.06.57.24.79.42.44.38.79.83 1.04 1.34-.32-.46-.72-.86-1.17-1.17-.22-.15-.47-.28-.7-.3a.5.5 0 0 0-.31.08c-.1.06-.22.15-.32.23-.87.68-1.71 1.44-2.68 2.06-.25.15-.49.31-.78.43-.14.07-.29.12-.46.16-.17.03-.38.05-.55 0-.35-.08-.6-.21-.87-.34a25.2 25.2 0 0 1-.75-.42c-.97-.6-1.89-1.26-2.79-1.94-.45-.35-.88-.7-1.32-1.07-.45-.39-.88-.86-1.08-1.52-.09-.32-.11-.69 0-1.02.04-.17.12-.32.2-.46.09-.13.17-.28.28-.39.42-.47.92-.8 1.44-1.06a12.51 12.51 0 0 1 6.6-1.39z" fill="#c5796d" stroke-width="none" opacity="1" stroke="none"></path><path id="SvgjsPath6054" d="M108 104.85c.54.17 1.02.5 1.4.96.19.23.35.48.45.82.08.32.07.63.04.93-.07.59-.28 1.12-.54 1.62-.27.49-.6.95-1.05 1.3.18-.53.34-1.03.49-1.53.14-.5.27-1 .33-1.48.03-.24.04-.48.01-.68-.02-.18-.13-.42-.23-.64-.24-.44-.55-.86-.9-1.3z" fill="#c5796d" stroke-width="none" opacity="1" stroke="none"></path><path id="SvgjsPath6055" d="M92.99 106.65c-.37.37-.76.7-1.11 1.04-.17.17-.34.34-.44.51-.03.04-.04.08-.06.11-.02.04-.01.06-.03.08.01.01.01.01 0 .01v.01l.01.04c.01.05.02.1.03.16.09.46.21.96.3 1.45.09.5.17 1 .18 1.54-.32-.43-.55-.89-.76-1.36-.2-.48-.38-.95-.49-1.49l-.03-.21-.01-.06v-.09c0-.06.01-.12.02-.18.06-.2.15-.35.26-.47.21-.23.42-.4.66-.54.46-.26.95-.45 1.47-.55z" fill="#c5796d" stroke-width="none" opacity="1" stroke="none"></path><path id="SvgjsPath6056" d="M93.22 110.41c.11-.29.29-.5.5-.69.21-.18.44-.33.7-.44.26-.1.54-.17.84-.16.29.01.6.09.82.31-.29.1-.5.2-.72.29-.22.09-.43.19-.65.28-.45.17-.9.35-1.49.41z" fill="#c5796d" stroke-width="none" opacity="1" stroke="none"></path><path id="SvgjsPath6057" d="M101.51 103.66c-1.64-.67-4.02.54-5.47 1.27-1.48.74-.18 2.87 1.28 2.2.79-.36 1.61-.64 2.43-.91.78-.25 1.56-.42 2.18-.96.6-.53.19-1.35-.42-1.6z" fill="#fbe5e2" stroke-width="none" opacity="1" stroke="none"></path></g></g><g id="svga-group-hair-front"><path id="SvgjsPath8398" d="M39.7 160.7c-.4-.9-.6-1.5-.6-1.5s.2.6.6 1.5zm40.4-10.1s-.7-3.8-5.2-4.6c-3.9-.8-6.9 1.7-7.7 2.6-1.5.2-4.9-1.9-11 4.8-7.3 7.9-3.1 18.8-3.1 18.8-8.5-2.2-12.1-8.5-13.4-11.3 1.5 3.8 5.6 13.8 9.2 15.5 4.4 2.1 12.3 7.8 12.7 13.8.3 6-5.2 8.3-5.2 8.3 11.8.3 16.4-4.9 17.8-7.1s2.9-6.8 2.3-11.5-1.3-17.1 1.7-24.3c1.1-3.2 1.9-5 1.9-5zM55.8 88.8l2 1.7s-.3-15.4 9.4-27.8 18-10.7 18-10.7S97 56.7 108 55c0 0 7.4 0 9.4 9 0 0 4-5.7-3.7-10.7 0 0 8.4-.3 13.4 2.3 5 2.7 9.4 9.7 12 18.4 2.7 8.7 2.3 18.1 2.3 18.1l2-2s3.7-13.7 1-25.4-7.3-18.7-7.3-18.7-1.3-4.3-5.7-7c0 0-3.7-8-10-10 0 0-.7-4-8-5.4 0 0-4.7-2.7-11-1.7 0 0-5-1.7-9.4 0 0 0-6-1.7-10 1.7 0 0-7.7 3.7-11.4 6.4s-4 9.7-4 9.7-1.4.9-2.1 1.9c-.7 1-1.4 3.7-1.4 3.7s-3.4 4.1-4.2 8.7c0 0-2.8 1-3.5 10.9 0 0-1 2.3-1.1 8.5 0 0-1.2 3.2-.8 7.3.4 3.9 1.3 8.1 1.3 8.1z" fill="#2a232b" stroke-width="none" opacity="1" stroke="none"></path><path id="SvgjsPath8399" d="M79.7 38.2c-.2-2.5.1-5.1.7-7.6.7-2.5 1.7-4.9 3.2-7.2-1.9 1.9-3.4 4.2-4.3 6.8-.9 2.6-1.3 5.3-1.1 8.1.2 2.7 1 5.4 2.3 7.8 1.3 2.4 3.1 4.5 5.2 6.1-1.8-2-3.2-4.2-4.2-6.6-1-2.3-1.7-4.9-1.8-7.4zm-6.2.2c.2-2.8 1.2-5.6 2.6-8.1 1.5-2.5 3.4-4.7 5.9-6.3-.6.2-1.1.5-1.6.8-3.2.6-6.2 2.4-8.6 4.8-2.4 2.5-4.1 5.8-4.8 9.2-.7 3.5-.3 7.1.8 10.4 1.2 3.3 3.3 6.3 6.1 8.2-2.4-2.4-4-5.5-5-8.6-.9-3.2-1.1-6.5-.5-9.8.6-3.2 2.1-6.2 4.2-8.8 1.9-2.3 4.4-4.2 7.2-5.3-1.9 1.2-3.6 2.8-4.8 4.7-1.7 2.5-2.8 5.5-3.1 8.6-.3 3.1.2 6.2 1.5 9 1.2 2.8 3.2 5.3 5.6 7-2.1-2.1-3.6-4.7-4.5-7.4-.8-2.7-1.3-5.6-1-8.4zm-8.9 32.9c-1.2-2-2.2-4.1-2.9-6.3-.7-2.2-1.1-4.4-1.1-6.7-.1-2.2.2-4.5.7-6.7.5-2.2 1.4-4.3 2.5-6.3 0 .1-.1.2-.1.3-.6 2.1-.7 4.3-.6 6.4.2 2.2.7 4.3 1.7 6.2.9 2 2.2 3.7 3.8 5.1-2.3-3.6-3.6-7.5-3.9-11.5-.2-2-.1-4 .2-6 .3-2 .9-4 1.7-5.9-1.3 1.5-2.2 3.4-2.7 5.3-1.6 1.7-2.8 3.8-3.6 6.1-.8 2.3-1.2 4.7-1.1 7.1.1 2.4.6 4.8 1.5 7s2.2 4.3 3.9 5.9zm-6.5 2c1 2 2.3 3.8 3.9 5.2-2.4-3.6-3.8-7.5-4.3-11.6-.3-2.1-.3-4.1-.1-6.2.2-2.1.7-4.1 1.4-6.2-1.2 1.8-2.1 3.8-2.5 6-.5 2.2-.5 4.4-.3 6.6.3 2.1.9 4.2 1.9 6.2zM57 81.4c.8 1.6 2 3 3.4 4-1-1.4-1.8-2.9-2.3-4.5-.6-1.6-1-3.2-1.2-4.8-.3-1.6-.4-3.3-.5-5-.1-1.7-.2-3.4-.4-5.2-.4 1.7-.6 3.4-.7 5.2-.1 1.7 0 3.5.2 5.2.1 1.8.7 3.5 1.5 5.1zm-1.3 5.3c.7 1.3 1.6 2.6 2.7 3.6-.6-1.4-1.2-2.7-1.6-4.1-.5-1.4-.8-2.8-1.1-4.2-.3-1.4-.5-2.8-.6-4.3-.1-1.4-.1-2.8-.1-4.3-.6 1.4-1 2.9-1.1 4.4-.1 1.5 0 3.1.3 4.6.3 1.4.8 2.9 1.5 4.3zm34.2-47.6c-.4-2.8-.4-5.7.2-8.5.5-2.8 1.5-5.6 2.9-8.2-1.9 2.3-3.3 5-4 7.9-.8 2.9-.9 6-.5 9 .5 3 1.5 5.9 3.2 8.4 1.6 2.5 3.7 4.8 6.2 6.3-2.1-2-3.9-4.4-5.2-6.9-1.4-2.4-2.3-5.2-2.8-8zm10.9-2.6c-.5-2.4-1.1-4.7-2-6.9-.8-2.2-1.8-4.4-3.1-6.5.7 2.3 1.4 4.6 2 6.8.6 2.3 1.2 4.6 1.6 6.9.5 2.3.9 4.6 1.2 7 .3 2.3.6 4.7.9 7.1.3-2.4.4-4.8.3-7.2-.1-2.5-.4-4.8-.9-7.2zm13 1.3c.7 2.6 1.1 5.3 1.1 8 0 1.3-.1 2.7-.4 4-.3 1.3-.9 2.5-2 3.5 1.3-.6 2.1-1.9 2.7-3.2.5-1.3.8-2.8.9-4.2.2-2.8-.2-5.7-.8-8.4-.7-2.7-1.8-5.4-3.3-7.8-1.5-2.4-3.4-4.5-5.6-6.2 1.8 2.1 3.3 4.4 4.6 6.8 1.2 2.3 2.1 4.9 2.8 7.5zm8.1-6.9c-.7-1.2-1.6-2.2-2.5-3.2-2.1-2-4.6-3.6-7.4-4.2 2.6 1.2 4.8 3 6.6 5 1.8 2.1 3.1 4.5 3.9 7.1.8 2.6 1.1 5.3.9 8.1-.2 2.7-.9 5.5-2.1 8 1.7-2.2 2.8-5 3.3-7.9.5-2.9.3-5.8-.6-8.7-.3-.9-.7-1.8-1.1-2.6.8 1 1.6 2.1 2.3 3.2 1.3 2 2.4 4.2 3.2 6.4.8 2.2 1.5 4.6 1.5 6.9 0 1.2-.2 2.3-.8 3.4-.5 1.1-1.3 2-2.4 2.6 1.2-.3 2.3-1.2 3-2.2.7-1.1 1.2-2.4 1.3-3.7.3-2.6-.4-5.1-1.2-7.5-1.6-4.2-4.3-8-7.9-10.7zm12.3 11.5c-1-1.8-2.4-3.5-4-4.7 1.2 1.6 2.2 3.4 3 5.2.7 1.8 1.2 3.7 1.4 5.7.2 1.9 0 3.9-.4 5.8s-1.1 3.8-2.1 5.6c1.5-1.5 2.5-3.3 3.2-5.3.7-2 .9-4.1.8-6.3-.3-2.1-.9-4.1-1.9-6zm7.9 20.6c.2-1.7.1-3.3-.3-5-.3-1.4-.9-2.8-1.6-4v-.4c-.2-2-.7-4-1.6-5.8-.9-1.8-2.2-3.4-3.7-4.6 1.1 1.6 2 3.3 2.6 5.1.6 1.8 1.1 3.6 1.2 5.5.1 1.9 0 3.7-.4 5.6-.4 1.8-1.1 3.7-1.9 5.4 1.4-1.4 2.4-3.2 3-5.1.5-1.5.8-3 .8-4.6.5 2.6.7 5.2.4 7.8-.3 3.1-1.3 6-2.8 8.9 1.2-1.1 2.2-2.4 2.9-3.9.7-1.6 1.2-3.3 1.4-4.9zm2.5 7.5c.3-1.5.5-3.1.3-4.6-.1-1.5-.5-3.1-1.2-4.4.1 1.5.1 3 0 4.5-.1 1.4-.3 2.9-.6 4.3s-.8 2.8-1.3 4.1c-.6 1.3-1.2 2.7-2 4 1.2-.9 2.2-2.1 3-3.4.8-1.5 1.4-3 1.8-4.5zm.5 2.4c-.4 1-.7 2-1 2.9-.3 1-.6 1.9-1 2.8-.4.9-.7 1.9-1.1 2.8-.4.9-.8 1.9-1.2 2.9.9-.6 1.6-1.4 2.2-2.3.6-.9 1.1-1.8 1.5-2.8.4-1 .6-2.1.7-3.1.1-1.1.1-2.2-.1-3.2zm-1.2 9.3-.8 2.9-.9 2.9c-.3 1-.6 1.9-.9 3 .8-.7 1.4-1.6 1.9-2.5.5-.9.9-1.9 1.2-2.9s.5-2.1.6-3.1c.1-1.1 0-2.1-.2-3.2-.4 1-.6 2-.9 2.9zM79 153.1c-2.1 4.1-3.4 8.6-3.8 13.1-.2 2.3-.3 4.6-.1 6.9.2 2.3.5 4.6.7 6.8.2 2.2.2 4.4-.4 6.5-.5 2.1-1.6 4-3 5.7-2.8 3.4-7 5.7-11.6 5.9 2.3.2 4.6-.2 6.8-1.1 2.1-.9 4.1-2.3 5.7-4s2.8-3.8 3.5-6.1c.7-2.3.7-4.7.5-7-.2-2.3-.6-4.6-.8-6.8-.2-2.2-.2-4.5-.2-6.7.2-4.5 1.1-8.9 2.7-13.2zm-17.2 37.6c0-1.3-.3-2.5-.7-3.7-.9-2.4-2.5-4.4-4.3-6.1-1.8-1.7-3.9-3-5.9-4.4-1-.7-2-1.3-2.9-2.1-.9-.7-1.8-1.5-2.5-2.4-1.5-1.8-2.8-3.8-3.9-5.9-1-2.1-1.9-4.4-2.5-6.7-.6-2.3-.9-4.7-.9-7.1-.6 4.8.4 9.8 2.4 14.3 1 2.2 2.2 4.4 3.8 6.3.8.9 1.7 1.8 2.7 2.6 1 .8 2 1.4 3 2.1 2 1.4 4 2.7 5.8 4.2 1.8 1.5 3.3 3.4 4.2 5.5.9 2.1 1.2 4.5.3 6.6-.8 2.1-2.7 4-5.1 4.4 1.2 0 2.4-.4 3.4-1.2 1-.7 1.8-1.8 2.4-2.9.4-.9.7-2.2.7-3.5zm6.4-2.2c.7-2.1.9-4.4.2-6.5-.7-2.2-2.1-3.9-3.5-5.4-1.4-1.5-2.8-3-3.7-4.8-1-1.7-1.5-3.7-1.7-5.7-.4-4 .6-8.2 3.1-11.5-1.5 1.5-2.6 3.3-3.3 5.3-.7 2-1 4.2-.9 6.3.1 2.1.7 4.3 1.6 6.2 1 2 2.5 3.6 3.8 5.1 1.4 1.5 2.7 3.1 3.3 4.9.6 1.8.5 3.9 0 5.7-.5 1.9-1.6 3.7-2.9 5.2-1.3 1.6-3 2.8-4.7 4 1.9-.9 3.7-2.1 5.2-3.5s2.8-3.2 3.5-5.3zM123 13.6c.8 1.4 1.4 3 1.5 4.7.1 1.6-.2 3.3-.8 4.8-.6 1.5-1.6 3-2.8 4.3 1.6-.8 3-2.1 3.9-3.8.9-1.6 1.3-3.5 1.2-5.4-.2-1.9-.9-3.7-2-5.2s-2.7-2.6-4.4-3.2c1.4 1.1 2.5 2.4 3.4 3.8zm-10.1 39.8c1.6.7 2.7 1.8 3.4 3.2.7 1.4 1.1 2.9 1.2 4.4 0 .5 0 .9-.1 1.4-.3-1-.7-2-1.3-2.9-1-1.4-2.4-2.6-3.9-3.4-1.5-.8-3.1-1.4-4.8-1.6 1.4.8 2.8 1.6 4.1 2.6 1.3 1 2.4 2 3.3 3.3.9 1.2 1.4 2.7 1.7 4.2.1.6.1 1.1.1 1.7l-1.2 4.2c1-1.4 1.8-2.8 2.4-4.4.6-1.6 1-3.3 1-5.1-.1-1.8-.6-3.6-1.7-5-.9-1.5-2.5-2.6-4.2-2.6zm-39 101c-.2 2.5-.8 5.1-1.6 7.5-.4 1.2-.9 2.4-1.6 3.6-.6 1.2-1.3 2.3-2 3.4-.8 1.1-1.7 2.3-1.9 3.7-.1.7 0 1.4.3 2 .3.6.9 1.2 1.7 1.4-1.3-.7-1.6-2.2-1.3-3.3.4-1.2 1.3-2.2 2.2-3.3 1.7-2.2 3.1-4.6 4-7.1.5-1.3.8-2.6 1-3.9.2-1.3.4-2.6.3-3.9 0-2.6-.5-5.2-1.4-7.7.4 2.5.5 5.1.3 7.6z" fill="#0c080c" stroke-width="none" opacity="1" stroke="none"></path></g><g id="svga-group-glasses-single-move" transform="matrix(1,0,0,1,0,0)"><g id="svga-group-glasses-single"><path id="SvgjsPath7954" d="M96.1 90.7s.3-2.2-3.6-3.5c-3.1-1-6.2-1.2-8.8-1.2s-10.8-.1-12.9.1-5.2.4-6 3.4c-.8 3 1 7.8 5.2 10.2 4.2 2.3 12.5 2.5 17.8 1 5.3-1.5 7.8-5 8.3-10z" fill="#ffffff" stroke-width="none" opacity="0.44"></path><path id="SvgjsPath7955" d="M104.9 90.7s-.2-2.2 3.8-3.5c3.1-1 6.3-1.2 8.9-1.2s10.9-.1 13 .1 5.2.4 5.9 3.4c.6 3-1.4 7.9-5.7 10.3-4.3 2.3-12.6 2.5-17.9 1-5.4-1.6-7.7-5.1-8-10.1z" fill="#ffffff" stroke-width="none" opacity="0.44"></path><path id="SvgjsPath7956" d="M96.1 90.1s3.8-1.7 8.8 0v1s-5.4-1-8.9 0l.1-1z" fill="#070201" stroke-width="none" opacity="1"></path><path id="SvgjsPath7957" d="M79.9 102.1c-4.1 0-7.8-.7-10.1-2-3.8-2.1-5.6-6.2-5.6-9V91h-2.5l-.2-2.1h3.1v-.1c1.1-2.6 4-2.8 5.9-3h.2c.9-.1 2.9-.1 6.3-.1H83.6c2.5 0 5.8.1 8.9 1.2 4.1 1.4 3.9 3.7 3.9 3.9-.6 5.4-3.5 8.9-8.6 10.4-2.1.6-5 .9-7.9.9zm-2.8-15.7c-3.4 0-5.4 0-6.3.1h-.2c-2.1.2-4.8.4-5.5 3.1-.8 3 1.1 7.6 5 9.8 2.2 1.2 5.7 1.9 9.7 1.9 2.8 0 5.6-.3 7.8-1 4.9-1.4 7.5-4.6 8.1-9.8 0-.2.1-2-3.4-3.1-3-1-6.2-1.1-8.7-1.1h-2.3c-1.2.1-2.7.1-4.2.1zm43.5 15.7c-2.9 0-5.7-.4-7.9-1-5.1-1.5-7.8-4.9-8.2-10.4 0-.3-.1-2.6 4.1-3.9 3.2-1 6.5-1.2 9-1.2h6.7c3.4 0 5.4 0 6.3.1h.2c1.9.2 4.8.4 5.8 3v.1h3.1l-.3 2.1h-2.5v.1c-.2 2.9-2.1 6.9-6 9.1-2.4 1.3-6.2 2-10.3 2zm3.6-15.7h-6.6c-2.4 0-5.7.1-8.7 1.1-3.5 1.2-3.5 2.9-3.5 3.1.3 5.2 2.8 8.4 7.6 9.8 2.1.6 4.9 1 7.7 1 4 0 7.6-.7 9.8-1.9 4.1-2.2 6.1-6.9 5.5-9.8-.6-2.7-3.2-2.9-5.4-3.2h-.2c-.8-.1-2.9-.1-6.2-.1z" fill="#26120b" stroke-width="none" opacity="1"></path><path id="SvgjsPath7958" d="M77 85.7h6.7c2.5 0 5.8.1 8.9 1.2 4 1.3 3.8 3.6 3.8 3.8-.6 5.4-3.4 8.8-8.5 10.3-2.2.7-5.1 1-7.9 1-4.1 0-7.8-.7-10-2-3.7-2.1-5.5-6.1-5.5-8.9v-.3H62l-.3-1.8h3l.1-.1c1-2.5 3.9-2.8 5.8-2.9h.2c.8-.2 2.9-.3 6.2-.3m2.9 15.8c2.8 0 5.6-.3 7.8-1 4.9-1.4 7.6-4.6 8.2-9.9 0-.2.1-2.1-3.5-3.2-3-1-6.2-1.1-8.7-1.1H77.1c-3.4 0-5.4 0-6.3.1h-.2c-2.1.2-4.9.5-5.6 3.2-.8 3 1.1 7.7 5.1 9.9 2.2 1.3 5.8 2 9.8 2m-2.9-16c-2.7 0-5.2 0-6.3.1h-.2c-2 .2-4.9.5-6 3.1h-3.1l.2 2.3h2.5c0 3.2 2.1 7.1 5.7 9.1 2.5 1.4 6.4 2.1 10.2 2.1 2.9 0 5.7-.4 8-1 5.2-1.5 8.1-5 8.7-10.5 0-.3.2-2.7-4-4.1-3.1-1.1-6.4-1.2-9-1.2h-2.2c-1.3.1-2.9.1-4.5.1zm2.9 15.8c-3.6 0-7.3-.6-9.7-1.9-3.9-2.2-5.7-6.8-5-9.7.7-2.6 3.3-2.9 5.4-3.1h.2c1-.1 3.6-.1 6.2-.1H83.6c2.4 0 5.6.1 8.6 1.1 3.4 1.1 3.3 2.9 3.3 3-.5 5.1-3.1 8.3-8 9.7-2 .6-4.8 1-7.6 1zm44.4-15.9v.3c3.4 0 5.4 0 6.3.1h.2c1.9.2 4.7.4 5.7 2.9l.1.1h3.1l-.3 1.8h-2.5v.3c-.2 2.8-2.1 6.8-6 8.9-2.4 1.3-6.1 2-10.2 2-2.9 0-5.7-.4-7.9-1-5-1.5-7.8-4.9-8.1-10.3 0-.2-.1-2.5 4-3.8 3.2-1 6.4-1.2 8.9-1.2H124.3v-.1m-3.6 16.1c4 0 7.7-.7 9.9-1.9 4.1-2.3 6.2-7 5.6-10-.6-2.8-3.4-3-5.5-3.2h-.2c-.9-.1-2.9-.1-6.3-.1h-6.7c-2.5 0-5.7.1-8.8 1.1-3.6 1.2-3.6 3.1-3.6 3.3.3 5.2 2.8 8.4 7.7 9.9 2.3.6 5 .9 7.9.9m3.6-16.1h-6.7c-2.5 0-5.8.1-9.1 1.2-4.3 1.4-4.2 3.8-4.2 4.1.3 5.5 3.1 9 8.2 10.5 2.2.7 5.1 1 8 1 3.8 0 7.7-.6 10.3-2.1 3.7-2.1 5.9-6 6.1-9.2h2.5l.3-2.4h-3.1c-1-2.6-3.9-2.9-5.9-3.1h-.2c-.9.1-3.5 0-6.2 0zm-3.6 15.9c-2.8 0-5.6-.3-7.7-1-4.8-1.4-7.3-4.5-7.6-9.7 0-.1-.1-1.8 3.4-3 3-1 6.2-1.1 8.7-1.1H124.1c2.6 0 5.2 0 6.3.1h.2c2.1.2 4.7.4 5.3 3.1.6 2.9-1.4 7.5-5.4 9.7-2.5 1.3-6.2 1.9-9.8 1.9z" fill="#070201" stroke-width="none" opacity="1"></path></g></g></g></g></g><rect id="svga-credit-rect" width="200" height="15" x="0" y="185" fill="#ecf0f1" opacity="0.5" style="display: none;"></rect><text id="svga-credit-text" font-family="Avenir Next, Roboto, Helvetica, Arial, sans-serif" font-size="10px" text-anchor="start" font-weight="400" size="10px" anchor="start" weight="400" fill="#333333" x="33.40447998046875" y="182.60824704170227" style="display: none;"><tspan id="SvgjsTspan5136" dy="13" x="33.40447998046875">Created on AvatarMaker.com</tspan></text></g><defs id="SvgjsDefs5088"><linearGradient id="SvgjsLinearGradient5920" x1="100.0291" y1="78.4287" x2="100.0291" y2="116.3678" gradientUnits="userSpaceOnUse" class="svga-on-canvas-nose-gradient-single-0-null"><stop id="SvgjsStop5921" stop-opacity="0" stop-color="#fff4f3" offset="0" ></stop><stop id="SvgjsStop5922" stop-opacity="0.9727" stop-color="#f3d4cf" offset="0.7584" ></stop><stop id="SvgjsStop5923" stop-opacity="0.9769" stop-color="#ebc3bd" offset="0.7953" ></stop><stop id="SvgjsStop5924" stop-opacity="0.9852" stop-color="#e4b3ab" offset="0.8691" ></stop><stop id="SvgjsStop5925" stop-opacity="0.9968" stop-color="#d4958a" offset="0.972" ></stop><stop id="SvgjsStop5926" stop-opacity="1" stop-color="#c5796d" offset="1" ></stop></linearGradient><linearGradient id="SvgjsLinearGradient5950" x1="99.7789" y1="100.5259" x2="99.7789" y2="111.7225" gradientUnits="userSpaceOnUse" class="svga-on-canvas-nose-gradient-single-0-null"><stop id="SvgjsStop5951" stop-opacity="0" stop-color="#f3d4cf" offset="0" ></stop><stop id="SvgjsStop5952" stop-opacity="1" stop-color="#ebc3bd" offset="1" ></stop></linearGradient><linearGradient id="SvgjsLinearGradient6022" x1="100.1029" y1="84.5527" x2="100.1029" y2="114.9561" gradientUnits="userSpaceOnUse" class="svga-on-canvas-nose-gradient-single-0-null"><stop id="SvgjsStop6023" stop-opacity="0" stop-color="#ebc3bd" offset="0" ></stop><stop id="SvgjsStop6024" stop-opacity="1" stop-color="#d4958a" offset="1" ></stop></linearGradient></defs></svg>