<?xml version="1.0" encoding="UTF-8"?>
<svg width="46px" height="43px" viewBox="0 0 46 43" version="1.1" xmlns="http://www.w3.org/2000/svg" xmlns:xlink="http://www.w3.org/1999/xlink">
    <g id="Logo-Footer" stroke="none" stroke-width="1" fill="none" fill-rule="evenodd">
        <g id="Group" transform="translate(0.000000, 0.000000)">
            <path d="M22.841,-2.84217094e-14 C10.226,-2.84217094e-14 7.10542736e-15,10.226 7.10542736e-15,22.841 L7.10542736e-15,42.483 L13.02,42.483 L13.02,22.841 C13.02,17.418 17.417,13.021 22.841,13.021 C28.265,13.021 32.662,17.418 32.662,22.841 L32.662,42.483 L45.682,42.483 L45.682,22.841 C45.682,10.226 35.456,-2.84217094e-14 22.841,-2.84217094e-14" id="Fill-1" fill="#cf0808"></path>
            <path d="M22.841,-2.84217094e-14 C10.226,-2.84217094e-14 7.10542736e-15,10.226 7.10542736e-15,22.841 L7.10542736e-15,42.483 L13.02,42.483 L13.02,22.841 C13.02,17.418 17.417,13.021 22.841,13.021 C28.265,13.021 32.662,17.418 32.662,22.841 L32.662,42.483 L45.682,42.483 L45.682,22.841 C45.682,10.226 35.456,-2.84217094e-14 22.841,-2.84217094e-14 Z" id="Stroke-3" stroke="#cf0808" stroke-width="0.793"></path>
        </g>
    </g>
</svg>